<?xml version="1.0" encoding="utf-8"?>
<svg version="1.1" xmlns:xlink="http://www.w3.org/1999/xlink" width="14px" height="17px" xmlns="http://www.w3.org/2000/svg">
  <g transform="matrix(1 0 0 1 -378 -370 )">
    <path d="M 10.3055555494792 4.65819209639831  C 9.7688619101456 4.65759663001402  9.33393608703678 4.22793624464941  9.33333333333333 3.69774010699153  L 9.33333333333333 0.0480226048728813  L 0.972222216145833 0.0480226048728813  C 0.435528583919901 0.0486180712381299  0.000602763747175642 0.478278445646052  0 1.00847457627119  L 0 15.9915254237288  C 0.000602763747174606 16.5217215543539  0.435528583919899 16.9513819287619  0.972222216145833 17  L 13.0277777838542 17  C 13.5644714160801 16.9513819287619  13.9993972362528 16.5217215543539  14 15.9915254237288  L 14 4.65819209639831  L 10.3055555494792 4.65819209639831  Z M 3.5 3.88983050847458  L 6.6111111171875 3.88983050847458  C 6.82588852157742 3.88983050847458  7.00000000911458 4.06183410875342  7.00000000911458 4.27401130243644  C 7.00000000911458 4.48618849611946  6.82588852157742 4.65819209639831  6.6111111171875 4.65819209639831  L 3.5 4.65819209639831  C 3.28522259561008 4.65819209639831  3.11111110807292 4.48618849611946  3.11111110807292 4.27401130243644  C 3.11111110807292 4.06183410875342  3.28522259561008 3.88983050847458  3.5 3.88983050847458  Z M 10.5 13.1101694915254  L 3.5 13.1101694915254  C 3.28522259561008 13.1101694915254  3.11111110807292 12.9381658912466  3.11111110807292 12.7259886975636  C 3.11111110807292 12.5138115038805  3.28522259561008 12.3418079036017  3.5 12.3418079036017  L 10.5 12.3418079036017  C 10.7147774043899 12.3418079036017  10.8888888919271 12.5138115038805  10.8888888919271 12.7259886975636  C 10.8888888919271 12.9381658912466  10.7147774043899 13.1101694915254  10.5 13.1101694915254  Z M 10.5 8.5  C 10.7147773993561 8.5  10.8888888828125 8.67200359624751  10.8888888828125 8.88418078495763  C 10.8888888828125 9.09635799167622  10.7147773993561 9.26836158792373  10.5 9.26836158792373  L 3.5 9.26836158792373  C 3.28522259561008 9.26836158792373  3.11111110807292 9.09635798764489  3.11111110807292 8.88418079396187  C 3.11111110807292 8.67200360027884  3.28522259561008 8.5  3.5 8.5  L 10.5 8.5  Z " fill-rule="nonzero" fill="#05366f" stroke="none" transform="matrix(1 0 0 1 378 370 )" />
  </g>
</svg>