<?xml version="1.0" encoding="utf-8"?>
<svg version="1.1" xmlns:xlink="http://www.w3.org/1999/xlink" width="17px" height="17px" xmlns="http://www.w3.org/2000/svg">
  <g transform="matrix(1 0 0 1 -308 -228 )">
    <path d="M 11.7735481971154 14.5714320458984  L 11.7735481971154 8.50001213574219  L 14.7625549221154 8.50001213574219  L 14.7625549221154 14.5714320458984  L 16.3096648009615 14.5714320458984  L 16.3096648009615 17  L 0.766829853846155 17  L 0.766829853846155 14.5714320458984  L 11.7735481971154 14.5714320458984  Z M 9.97775296826923 8.50001213574219  L 9.98014416538462 8.50001213574219  L 9.98014416538462 14.5714320458984  L 6.99472426057692 14.5714320458984  L 6.99472426057692 8.50001213574219  L 9.97775296826923 8.50001213574219  Z M 5.19534221153846 8.50001213574219  L 5.197733425 8.50001213574219  L 5.197733425 14.5714320458984  L 2.2087267 14.5714320458984  L 2.2087267 8.50001213574219  L 5.19534221153846 8.50001213574219  Z M 8.23217304230769 0.085024171875  C 8.31052368955608 0.0290006919791625  8.40417007106297 -0.00072106105238888  8.49998805096154 2.42880859375E-05  C 8.56372650212904 -2.33681929101377E-05  8.6267978283397 0.0132012650138509  8.68530645673077 0.0388813740234375  L 8.76780304326923 0.085024171875  L 16.6850840394231 5.8322302421875  C 16.8452139463624 5.9463960232407  16.9103368561293 6.15526062014175  16.8440991951923 6.34222951171875  C 16.7921536353812 6.49361208713679  16.6669254649543 6.60702241739748  16.5129172586538 6.64215765625  L 16.4172690471154 6.65187192773438  L 0.582707054807692 6.65187192773438  C 0.3871452713608 6.66098227968308  0.210817017618558 6.53306557872929  0.155876890384615 6.34222951171875  C 0.10215900435135 6.18984740254419  0.135738875574401 6.01979180627295  0.2431558875 5.90023014257813  L 0.314892046153846 5.8322302421875  L 8.23217304230769 0.085024171875  Z " fill-rule="nonzero" fill="#0b79df" stroke="none" transform="matrix(1 0 0 1 308 228 )" />
  </g>
</svg>