<?xml version="1.0" encoding="utf-8"?>
<svg version="1.1" xmlns:xlink="http://www.w3.org/1999/xlink" width="19px" height="19px" xmlns="http://www.w3.org/2000/svg">
  <g transform="matrix(1 0 0 1 -66 -342 )">
    <path d="M 18.995796460177 14.4538716814159  C 19.004203539823 13.991482300885  18.6258849557522 13.6131637168142  18.1634955752212 13.6131637168142  L 16.9738938053097 13.6131637168142  L 16.9738938053097 10.9586283185841  C 16.9738938053097 10.225110619469  16.3475663716814 9.62820796460177  15.5804203539823 9.62820796460177  L 10.220907079646 9.62820796460177  L 10.220907079646 6.88960176991151  L 12.1272123893805 6.88960176991151  C 12.5896017699115 6.88960176991151  12.9679203539823 6.51128318584071  12.9679203539823 6.04889380530974  L 12.9679203539823 1.00464601769912  C 12.9679203539823 0.542256637168142  12.5896017699115 0.163938053097345  12.1272123893805 0.163938053097345  L 7.08296460176991 0.163938053097345  C 6.62057522123894 0.163938053097345  6.24225663716814 0.542256637168142  6.24225663716814 1.00464601769912  L 6.24225663716814 6.04889380530974  C 6.24225663716814 6.51128318584071  6.62057522123894 6.88960176991151  7.08296460176991 6.88960176991151  L 8.91780973451328 6.88960176991151  L 8.91780973451328 9.62820796460177  L 3.58982300884956 9.62820796460177  C 2.82057522123894 9.62820796460177  2.19634955752212 10.225110619469  2.19634955752212 10.9586283185841  L 2.19634955752212 13.6131637168142  L 0.98783185840708 13.6131637168142  C 0.525442477876106 13.6131637168142  0.14712389380531 13.991482300885  0.14712389380531 14.4538716814159  L 0.14712389380531 18.1529867256637  C 0.14712389380531 18.6153761061947  0.525442477876106 18.9936946902655  0.98783185840708 18.9936946902655  L 4.68694690265487 18.9936946902655  C 5.14933628318584 18.9936946902655  5.52765486725664 18.6153761061947  5.52765486725664 18.1529867256637  L 5.52765486725664 14.4538716814159  C 5.52765486725664 13.991482300885  5.14933628318584 13.6131637168142  4.68694690265487 13.6131637168142  L 3.49734513274336 13.6131637168142  L 3.49734513274336 10.9670353982301  C 3.50575221238938 10.9544247787611  3.53727876106195 10.9313053097345  3.58772123893805 10.9313053097345  L 8.91570796460177 10.9313053097345  L 8.91570796460177 13.6131637168142  L 7.73241150442478 13.6131637168142  C 7.27002212389381 13.6131637168142  6.89170353982301 13.991482300885  6.89170353982301 14.4538716814159  L 6.89170353982301 18.1529867256637  C 6.89170353982301 18.6153761061947  7.27002212389381 18.9936946902655  7.73241150442478 18.9936946902655  L 11.4315265486726 18.9936946902655  C 11.8939159292035 18.9936946902655  12.2722345132743 18.6153761061947  12.2722345132743 18.1529867256637  L 12.2722345132743 14.4538716814159  C 12.2722345132743 13.991482300885  11.8939159292035 13.6131637168142  11.4315265486726 13.6131637168142  L 10.216703539823 13.6131637168142  L 10.216703539823 10.9313053097345  L 15.5741150442478 10.9313053097345  C 15.6245575221239 10.9313053097345  15.6560840707965 10.9544247787611  15.6644911504425 10.9670353982301  L 15.6644911504425 13.6131637168142  L 14.4559734513274 13.6131637168142  C 13.9935840707965 13.6131637168142  13.6152654867257 13.991482300885  13.6152654867257 14.4538716814159  L 13.6152654867257 18.1529867256637  C 13.6152654867257 18.6153761061947  13.9935840707965 18.9936946902655  14.4559734513274 18.9936946902655  L 18.1550884955752 18.9936946902655  C 18.6174778761062 18.9936946902655  18.995796460177 18.6153761061947  18.995796460177 18.1529867256637  L 18.995796460177 14.4538716814159  Z " fill-rule="nonzero" fill="#0b79df" stroke="none" transform="matrix(1 0 0 1 66 342 )" />
  </g>
</svg>