<?xml version="1.0" encoding="utf-8"?>
<svg version="1.1" xmlns:xlink="http://www.w3.org/1999/xlink" width="50px" height="59px" xmlns="http://www.w3.org/2000/svg">
  <g transform="matrix(1 0 0 1 -117 -192 )">
    <path d="M 49.9099100127551 54.3813923484513  C 49.9164360331633 43.1414585287611  43.3251316326531 33.5110458185841  34.0385709821429 29.6441880376106  L 34.0385709821429 28.5823047975664  C 37.8497806760204 25.7639732179204  40.3296774234694 21.1825147466814  40.3296773596939 16.0066688030973  C 40.3296773596939 7.44481781969026  33.5491176658163 0.505845049778761  25.1827292091837 0.505845049778761  C 16.816340752551 0.505845049778761  10.0357810586735 7.44481781969026  10.0357810586735 16.0066688030973  C 10.0357810586735 21.1825147466814  12.5156778061224 25.7639732179204  16.3268875 28.5823047975664  L 16.3268875 29.4972607422566  C 6.85107161989796 33.2572623440266  0.0835639668367328 42.9945312334071  0.0835639668367328 54.3813923484513  C 0.0835639668367328 56.6788000707965  2.34810121173469 58.5421046548673  5.14124808673469 58  L 44.8522258928571 58  C 47.6453727040816 58.5421045896018  49.9099100127551 56.6788000707965  49.9099100127551 54.3813923484513  Z " fill-rule="nonzero" fill="#ffffff" stroke="none" transform="matrix(1 0 0 1 117 192 )" />
  </g>
</svg>